# xmcd
#
# Track frame offsets: 
#        150
#        19595
#        43634
#        58128
#        76810
#        88638
#        108313
#        133408
#        158807
#        181858
#        197429
#        217301
#        231619
#        247603
#        266781
#        283995
#        299357
#        314653
#        333042
#
# Disc length: 4663 seconds
#
# Revision: 8
# Processed by: cddbd v1.5.2PL0 Copyright (c) Steve Scherf et al.
# Submitted via: ExactAudioCopy v1.1
#
DISCID=1c123513
DTITLE=Various Artist - Kiss - Smooth Grooves 2002 [CD2)
DYEAR=2002
DGENRE=Rap/R&B
TTITLE0=So Solid Crew presents Mr Shabz (feat. MBD and Reelists) - Hater
TTITLE0=s
TTITLE1=Goldtrix presents Andrea Brown - It's Love (Trippin') (Groove 
TTITLE1=Chronicles Vocal Mix)
TTITLE2=Double Take (feat. MC Kie) - Love Come Down
TTITLE3=Jhay Palmer (feat. MC Image) - Hello
TTITLE4=Distant Soundz - Time After Time
TTITLE5=Lee-O - U Stress Me (K Warren Club Mix)
TTITLE6=Angel 21 (feat. Rose Windross and MC Kie) - Flow (Girls Vocal Mi
TTITLE6=x)
TTITLE7=TJ Davis - Wonderful Life (Zoom And DBX Remix)
TTITLE8=Deep Cover - Sounds Of Eden
TTITLE9=Volatile Agents (feat. Simone Benn) - Hooked On You
TTITLE10=Bubba Sparxx - Ugly
TTITLE11=Afroman - Crazy Rap
TTITLE12=Ludacris (feat. Nate Dogg) - Area Codes
TTITLE13=DMX - Who We Be
TTITLE14=Commonwealth - Anthem
TTITLE15=Kurupt (feat. Natina Reed) - It's Over
TTITLE16=Kool G Rap (feat. G. Wise) - My Life
TTITLE17=Nelly (feat. Murphy Lee and Ali) - Batter Up (Full Phatt Radio 
TTITLE17=Edit)
TTITLE18=Aaron Soul - Soundclash
EXTD=
EXTT0=
EXTT1=
EXTT2=
EXTT3=
EXTT4=
EXTT5=
EXTT6=
EXTT7=
EXTT8=
EXTT9=
EXTT10=
EXTT11=
EXTT12=
EXTT13=
EXTT14=
EXTT15=
EXTT16=
EXTT17=
EXTT18=
PLAYORDER=
